<svg xmlns="http://www.w3.org/2000/svg" viewBox="0 0 1600 900" role="img" aria-labelledby="title desc">
  <title id="title">Robot learning teaser placeholder</title>
  <desc id="desc">A clean project-page placeholder showing egocentric robot observation and action prediction.</desc>
  <defs>
    <linearGradient id="desk" x1="0" y1="0" x2="1" y2="1">
      <stop offset="0" stop-color="#f7faf8"/>
      <stop offset="1" stop-color="#e8efeb"/>
    </linearGradient>
    <linearGradient id="screen" x1="0" y1="0" x2="1" y2="1">
      <stop offset="0" stop-color="#fdfefe"/>
      <stop offset="1" stop-color="#dfe9e4"/>
    </linearGradient>
  </defs>
  <rect width="1600" height="900" fill="#ffffff"/>
  <rect x="88" y="72" width="1424" height="756" rx="28" fill="url(#desk)" stroke="#d7e1dc" stroke-width="3"/>
  <rect x="170" y="130" width="720" height="486" rx="20" fill="url(#screen)" stroke="#c9d7d0" stroke-width="3"/>
  <rect x="216" y="178" width="628" height="350" rx="16" fill="#17201c"/>
  <rect x="250" y="214" width="244" height="196" rx="12" fill="#315d57"/>
  <rect x="520" y="214" width="286" height="196" rx="12" fill="#6f8379"/>
  <path d="M310 455 C390 392 464 506 560 436 C644 374 706 417 770 362" fill="none" stroke="#f1b950" stroke-width="14" stroke-linecap="round"/>
  <circle cx="310" cy="455" r="18" fill="#c75146"/>
  <circle cx="770" cy="362" r="18" fill="#14a092"/>
  <rect x="250" y="548" width="168" height="22" rx="11" fill="#d9e3de"/>
  <rect x="442" y="548" width="132" height="22" rx="11" fill="#d9e3de"/>
  <rect x="598" y="548" width="208" height="22" rx="11" fill="#d9e3de"/>
  <g transform="translate(980 178)">
    <rect x="0" y="0" width="410" height="520" rx="24" fill="#ffffff" stroke="#cfdcd6" stroke-width="3"/>
    <rect x="42" y="46" width="326" height="72" rx="12" fill="#edf4f0"/>
    <rect x="42" y="150" width="326" height="72" rx="12" fill="#edf4f0"/>
    <rect x="42" y="254" width="326" height="72" rx="12" fill="#edf4f0"/>
    <rect x="42" y="382" width="326" height="74" rx="14" fill="#0d524c"/>
    <text x="205" y="91" text-anchor="middle" font-family="Inter, Arial, sans-serif" font-size="28" font-weight="800" fill="#17201c">Observation</text>
    <text x="205" y="195" text-anchor="middle" font-family="Inter, Arial, sans-serif" font-size="28" font-weight="800" fill="#17201c">Language</text>
    <text x="205" y="299" text-anchor="middle" font-family="Inter, Arial, sans-serif" font-size="28" font-weight="800" fill="#17201c">Policy Tokens</text>
    <text x="205" y="427" text-anchor="middle" font-family="Inter, Arial, sans-serif" font-size="28" font-weight="800" fill="#ffffff">Action Chunk</text>
  </g>
  <path d="M892 372 C928 360 944 360 976 376" fill="none" stroke="#14756d" stroke-width="8" stroke-linecap="round"/>
  <path d="M952 342 L990 378 L952 414" fill="none" stroke="#14756d" stroke-width="8" stroke-linecap="round" stroke-linejoin="round"/>
  <text x="800" y="778" text-anchor="middle" font-family="Inter, Arial, sans-serif" font-size="42" font-weight="900" fill="#17201c">Replace With Your Teaser Video</text>
</svg>
